{"title":"Collection Of My Sisters Hot Friend","uid":7318997,"size":1788339768,"categoryP":"porn","categoryS":"movies","magnet":"?xt=urn:btih:5a5017aec686789236aaa57ca6d72cea44c1a8e5&amp;dn=Collection+Of+My+Sisters+Hot+Friend&amp;tr=udp%3A%2F%2Ftracker.openbittorrent.com%3A80&amp;tr=udp%3A%2F%2Fopen.demonii.com%3A1337&amp;tr=udp%3A%2F%2Ftracker.coppersurfer.tk%3A6969&amp;tr=udp%3A%2F%2Fexodus.desync.com%3A6969","seeders":0,"leechers":1,"uploader":"soulless123","files":16,"time":1338569911,"description":"Screens\n &lt;a href=&quot;\nhttp://bayimg.com/AAoAMAadp&quot; rel=&quot;nofollow&quot; target=&quot;_NEW&quot;&gt;\nhttp://bayimg.com/AAoAMAadp&lt;/a&gt;\n &lt;a href=&quot;\nhttp://bayimg.com/BAoAAaADp&quot; rel=&quot;nofollow&quot; target=&quot;_NEW&quot;&gt;\nhttp://bayimg.com/BAoAAaADp&lt;/a&gt;\n &lt;a href=&quot;\nhttp://bayimg.com/baoacAadP&quot; rel=&quot;nofollow&quot; target=&quot;_NEW&quot;&gt;\nhttp://bayimg.com/baoacAadP&lt;/a&gt;\n &lt;a href=&quot;\nhttp://bayimg.com/BaOadAADp&quot; rel=&quot;nofollow&quot; target=&quot;_NEW&quot;&gt;\nhttp://bayimg.com/BaOadAADp&lt;/a&gt;\n\nSeeding Time 24/7\n\nDon't Forget To Say Thanks If You Like My Post\n\n\n\n-=Media Info=-\n\n\nFormat : Windows Media\nFile size : 407 MiB\nDuration : 27mn 0s\nOverall bit rate mode : Constant\nOverall bit rate : 2 108 Kbps\nMaximum Overall bit rate : 2 116 Kbps\nEncoded date : UTC 2011-11-08 00:11:35.792\n\nVideo\nID : 2\nFormat : VC-1\nFormat profile : MP@HL\nCodec ID : WMV3\nCodec ID/Info : Windows Media Video 9\nCodec ID/Hint : WMV3\nDescription of the codec : Windows Media Video 9 - Professional\nDuration : 27mn 0s\nBit rate mode : Constant\nBit rate : 2 000 Kbps\nWidth : 850 pixels\nHeight : 480 pixels\nDisplay aspect ratio : 16:9\nFrame rate : 29.970 fps\nBit depth : 8 bits\nScan type : Progressive\nCompression mode : Lossy\nBits/(Pixel*Frame) : 0.164\nStream size : 386 MiB (95%)\nLanguage : English (US)\n\nAudio\nID : 1\nFormat : WMA\nFormat version : Version 2\nCodec ID : 161\nCodec ID/Info : Windows Media Audio\nDescription of the codec : Windows Media Audio 9.2 - 96 kbps, 48 kHz, stereo (A/V) 1-pass CBR\nDuration : 27mn 0s\nBit rate mode : Constant\nBit rate : 96.0 Kbps\nChannel(s) : 2 channels\nSampling rate : 48.0 KHz\nBit depth : 16 bits\nStream size : 18.5 MiB (5%)\nLanguage : English (US)","torrent":{"xt":"urn:btih:5a5017aec686789236aaa57ca6d72cea44c1a8e5","amp;dn":"Collection+Of+My+Sisters+Hot+Friend","amp;tr":["udp%3A%2F%2Ftracker.openbittorrent.com%3A80","udp%3A%2F%2Fopen.demonii.com%3A1337","udp%3A%2F%2Ftracker.coppersurfer.tk%3A6969","udp%3A%2F%2Fexodus.desync.com%3A6969"],"infoHash":"5a5017aec686789236aaa57ca6d72cea44c1a8e5","infoHashBuffer":{"type":"Buffer","data":[90,80,23,174,198,134,120,146,54,170,165,124,166,215,44,234,68,193,168,229]},"announce":[],"urlList":[]}}